<svg width="20" height="15" viewBox="0 0 20 15" fill="none" xmlns="http://www.w3.org/2000/svg">
<path d="M19.986 4.74005C19.9837 4.71068 19.9811 4.68135 19.978 4.65205C19.8893 3.39123 19.3267 2.2107 18.4033 1.34771C17.4798 0.484729 16.2639 0.00325252 15 5.08241e-05H5C3.71833 -0.00574183 2.48398 0.483826 1.5547 1.36652C0.625422 2.24921 0.0730737 3.45678 0.013 4.73705C0.00300001 4.81605 0 4.89805 0 4.99005V11.5001C0 12.4251 0.373 13.3281 1.022 13.9761C1.68081 14.6306 2.57134 14.9986 3.5 15.0001C5.3 15.0001 6.004 14.0001 7 12.0001C7.146 11.7081 7.992 10.0001 10 10.0001C11.996 10.0001 12.853 11.7071 13 12.0001C14.004 14.0001 14.7 15.0001 16.5 15.0001C17.425 15.0001 18.328 14.6271 18.976 13.9781C19.6305 13.3192 19.9985 12.4287 20 11.5001V5.00005C20 4.90505 19.996 4.82005 19.986 4.74005ZM5 7.03105C4.73366 7.03707 4.4688 6.98983 4.22098 6.89208C3.97315 6.79433 3.74735 6.64806 3.55683 6.46185C3.36631 6.27563 3.21491 6.05324 3.11153 5.80771C3.00814 5.56218 2.95485 5.29847 2.95478 5.03206C2.95472 4.76566 3.00788 4.50192 3.11114 4.25634C3.2144 4.01076 3.36569 3.78828 3.55611 3.60198C3.74654 3.41567 3.97227 3.26928 4.22005 3.17141C4.46782 3.07354 4.73266 3.02616 4.999 3.03205C5.52156 3.04361 6.01883 3.25928 6.38437 3.63289C6.74991 4.0065 6.95465 4.50837 6.95478 5.03106C6.95492 5.55375 6.75042 6.05572 6.38507 6.42952C6.01972 6.80332 5.52256 7.01923 5 7.03105ZM15 2.03105C15.2652 2.03105 15.5196 2.13641 15.7071 2.32394C15.8946 2.51148 16 2.76583 16 3.03105C16 3.29627 15.8946 3.55062 15.7071 3.73816C15.5196 3.92569 15.2652 4.03105 15 4.03105C14.7348 4.03105 14.4804 3.92569 14.2929 3.73816C14.1054 3.55062 14 3.29627 14 3.03105C14 2.76583 14.1054 2.51148 14.2929 2.32394C14.4804 2.13641 14.7348 2.03105 15 2.03105ZM13 6.03105C12.7348 6.03105 12.4804 5.92569 12.2929 5.73816C12.1054 5.55062 12 5.29627 12 5.03105C12 4.76583 12.1054 4.51148 12.2929 4.32394C12.4804 4.13641 12.7348 4.03105 13 4.03105C13.2652 4.03105 13.5196 4.13641 13.7071 4.32394C13.8946 4.51148 14 4.76583 14 5.03105C14 5.29627 13.8946 5.55062 13.7071 5.73816C13.5196 5.92569 13.2652 6.03105 13 6.03105ZM15 8.03105C14.7348 8.03105 14.4804 7.92569 14.2929 7.73816C14.1054 7.55062 14 7.29627 14 7.03105C14 6.76583 14.1054 6.51148 14.2929 6.32394C14.4804 6.13641 14.7348 6.03105 15 6.03105C15.2652 6.03105 15.5196 6.13641 15.7071 6.32394C15.8946 6.51148 16 6.76583 16 7.03105C16 7.29627 15.8946 7.55062 15.7071 7.73816C15.5196 7.92569 15.2652 8.03105 15 8.03105ZM17 6.03105C16.7348 6.03105 16.4804 5.92569 16.2929 5.73816C16.1054 5.55062 16 5.29627 16 5.03105C16 4.76583 16.1054 4.51148 16.2929 4.32394C16.4804 4.13641 16.7348 4.03105 17 4.03105C17.2652 4.03105 17.5196 4.13641 17.7071 4.32394C17.8946 4.51148 18 4.76583 18 5.03105C18 5.29627 17.8946 5.55062 17.7071 5.73816C17.5196 5.92569 17.2652 6.03105 17 6.03105Z"/>
</svg>
