<svg width="36" height="36" viewBox="0 0 36 36" fill="none" xmlns="http://www.w3.org/2000/svg">
<path d="M35.27 33.85L33.86 35.26L0.72998 2.14998L2.14998 0.72998L35.27 33.85ZM13.48 9.99998H21C21.53 9.99998 22.04 10.21 22.41 10.59C22.79 10.97 23 11.47 23 12V19.52L25 21.52V13.65L32 10.54V25.46L26.49 23.01L30.43 26.95L31.19 27.29C31.49 27.43 31.83 27.48 32.16 27.46C32.49 27.43 32.81 27.33 33.09 27.14C33.37 26.96 33.6 26.71 33.76 26.42C33.92 26.13 34 25.8 34 25.47V10.54C34 10.21 33.92 9.87998 33.76 9.58998C33.6 9.29998 33.37 9.04998 33.09 8.86998C32.81 8.68998 32.49 8.57998 32.16 8.54998C31.83 8.51998 31.49 8.57998 31.19 8.71998L24.97 11.48C24.84 10.52 24.37 9.63998 23.64 8.99998C22.91 8.35998 21.97 8.00998 21 8.00998H11.48L13.48 10.01V9.99998ZM22.16 25.63C21.82 25.87 21.42 26 21.01 26H5.99998C5.46998 26 4.95998 25.79 4.58998 25.41C4.20998 25.03 3.99998 24.53 3.99998 24V12C3.99998 11.47 4.20998 10.96 4.58998 10.59C4.96998 10.21 5.46998 9.99998 5.99998 9.99998H6.51998L4.73998 8.21998C4.14998 8.40998 3.60998 8.72998 3.16998 9.16998C2.41998 9.91998 1.99998 10.94 1.99998 12V24C1.99998 25.06 2.41998 26.08 3.16998 26.83C3.91998 27.58 4.93998 28 5.99998 28H21C21.94 28 22.86 27.66 23.58 27.05L22.16 25.63Z" fill="#B7C0D9"/>
</svg>
