<svg width="36" height="35" viewBox="0 0 36 35" fill="none" xmlns="http://www.w3.org/2000/svg">
<path d="M20.7099 11.94C18.9599 11.08 16.9899 10.6 14.8999 10.6C14.7299 10.6 14.5699 10.62 14.4099 10.63L12.2199 8.44C13.0899 8.29 13.9899 8.21 14.9099 8.21C17.3699 8.21 19.7899 8.79 21.9799 9.9C22.6599 10.25 22.7599 11.16 22.2199 11.7L22.1799 11.74C21.7899 12.13 21.1999 12.2 20.7099 11.96V11.94ZM14.0499 18.15C14.1599 18.26 14.2899 18.35 14.4399 18.41C14.5899 18.47 14.7399 18.5 14.8999 18.5C15.0599 18.5 15.2099 18.47 15.3599 18.41C15.5099 18.35 15.6399 18.26 15.7499 18.15L16.0499 17.85L12.8599 14.66C12.7199 14.73 12.5799 14.79 12.4399 14.87C11.8699 15.21 11.8699 15.98 12.3399 16.45L14.0299 18.14L14.0499 18.15ZM33.9899 30.22V5.8L22.9599 19.19L33.9899 30.22ZM8.28988 4.51C10.4099 3.78 12.6399 3.4 14.8999 3.4C18.7899 3.4 22.6099 4.51 25.8799 6.61C26.3699 6.93 27.0299 6.87 27.4399 6.45C27.9599 5.93 27.9099 5.06 27.2899 4.66C23.5999 2.26 19.2899 0.99 14.8899 1C11.8899 1 9.02988 1.59 6.40988 2.64L8.27988 4.51H8.28988ZM20.4599 22.25L11.5999 33.01H31.2099L20.4499 22.25H20.4599ZM2.73988 4.52C2.65988 4.57 2.57988 4.61 2.50988 4.66C2.36988 4.76 2.24988 4.88 2.15988 5.03C2.06988 5.18 2.01988 5.34 2.00988 5.52C1.99988 5.69 2.00988 5.86 2.07988 6.03C2.13988 6.19 2.23988 6.34 2.35988 6.46C2.55988 6.66 2.82988 6.78 3.11988 6.81C3.39988 6.84 3.68988 6.77 3.92988 6.61C4.11988 6.49 4.30988 6.39 4.49988 6.28L2.74988 4.53L2.73988 4.52ZM8.01988 9.8C7.95988 9.83 7.89988 9.86 7.83988 9.89C7.15988 10.24 7.05988 11.15 7.59988 11.69L7.63988 11.73C8.01988 12.11 8.61988 12.19 9.10988 11.95C9.34988 11.83 9.60988 11.74 9.85988 11.64L8.03988 9.82L8.01988 9.8ZM2.28988 0L0.879883 1.41L33.9999 34.54L35.4099 33.13L2.28988 0Z" fill="#B7C0D9"/>
</svg>
