<svg width="30" height="21" viewBox="0 0 30 21" fill="none" xmlns="http://www.w3.org/2000/svg">
<path fill-rule="evenodd" clip-rule="evenodd" d="M3.22051 0.038208C2.72471 0.038208 2.2467 0.223008 1.87984 0.556522L1.54134 0.864245C1.01911 1.339 0.786909 2.05454 0.930854 2.74548L1.56217 5.77582C1.75472 6.70003 2.56928 7.36238 3.51334 7.36238H5.03029L4.21702 6.30753C3.37055 5.20962 3.66927 3.61932 4.85645 2.90341C5.9814 2.22504 7.44465 2.61487 8.08298 3.763L10.0842 7.36238H17.1348L16.9103 7.01972C16.0851 5.76025 16.4709 4.06741 17.7603 3.28986C19.0008 2.54181 20.6119 2.92576 21.3817 4.15289L23.1331 6.94481C23.1958 7.04483 23.254 7.14753 23.3076 7.25262C24.0872 6.98198 24.6467 6.241 24.6467 5.36932V3.40049C24.6467 2.83158 24.4036 2.28979 23.9786 1.91159L23.0065 1.04653C22.2766 0.39703 21.3337 0.038208 20.3566 0.038208H3.22051ZM5.25614 3.47675C6.01234 3.02075 6.99578 3.27909 7.43024 4.04787L12.5713 13.145C12.6994 13.3718 12.7668 13.6278 12.7668 13.8883V15.3886C12.7668 15.8115 12.4239 16.1543 12.0011 16.1543C11.5782 16.1543 11.2353 15.8115 11.2353 15.3886V14.7886C11.2353 14.5944 11.1733 14.4053 11.0582 14.249L4.80307 5.74806C4.25639 5.00512 4.46625 3.95308 5.25614 3.47675ZM20.5847 4.44464C20.1304 3.65899 19.12 3.39888 18.3428 3.86753C17.5648 4.33669 17.3238 5.35333 17.8084 6.12182L23.1232 14.5499C23.2163 14.6974 23.2656 14.8683 23.2656 15.0427V15.6682C23.2656 16.0881 23.606 16.4285 24.0259 16.4285C24.4458 16.4285 24.7862 16.0881 24.7862 15.6682V14.0794C24.7862 13.8842 24.7497 13.6908 24.6786 13.509L22.3907 7.65921C22.3174 7.47173 22.23 7.29008 22.1292 7.11581L20.5847 4.44464ZM19.3565 6.15191C19.7538 6.15191 20.0759 5.82982 20.0759 5.4325C20.0759 5.03518 19.7538 4.71309 19.3565 4.71309C18.9592 4.71309 18.6371 5.03518 18.6371 5.4325C18.6371 5.82982 18.9592 6.15191 19.3565 6.15191ZM15.0908 8.42235C14.7129 8.00242 14.1745 7.76261 13.6095 7.76257L10.8351 7.76237L15.1194 11.3636C15.3108 11.5245 15.4213 11.7618 15.4213 12.0118V12.5162C15.4213 12.9391 15.7641 13.282 16.1871 13.282C16.6099 13.282 16.9528 12.9392 16.9529 12.5164L16.9532 10.8083C16.9533 10.6045 16.8778 10.4079 16.7415 10.2564L15.0908 8.42235ZM16.2283 12.9569C16.4857 12.9569 16.6944 12.7482 16.6944 12.4908C16.6944 12.2334 16.4857 12.0247 16.2283 12.0247C15.9709 12.0247 15.7623 12.2334 15.7623 12.4908C15.7623 12.7482 15.9709 12.9569 16.2283 12.9569ZM25.7312 5.68699L29.4834 10.8003C29.6803 11.0685 29.7864 11.3926 29.7864 11.7254L29.7862 13.3044C29.7862 13.7273 29.4433 14.07 29.0205 14.07C28.5975 14.07 28.2547 13.7272 28.2547 13.3043L28.2547 12.729C28.2547 12.52 28.1814 12.3175 28.0476 12.1568L24.5992 8.0172C25.1852 7.68248 25.5758 7.08776 25.6502 6.41704L25.7312 5.68699ZM29.4679 13.3066C29.4679 13.5273 29.289 13.7061 29.0684 13.7061C28.8477 13.7061 28.6689 13.5273 28.6689 13.3066C28.6689 13.086 28.8477 12.9071 29.0684 12.9071C29.289 12.9071 29.4679 13.086 29.4679 13.3066ZM13.9364 12.0232C13.7024 12.0232 13.4821 12.1333 13.3418 12.3205L12.9655 12.8222L13.365 13.4214L13.7425 12.9024C13.84 12.7683 13.9958 12.689 14.1615 12.689H14.3468C14.5307 12.689 14.6797 12.54 14.6797 12.3561C14.6797 12.1722 14.5307 12.0232 14.3468 12.0232H13.9364ZM26.8464 12.9562C26.6075 12.9562 26.3817 13.0652 26.2332 13.2524L25.4709 14.2131V15.1453L26.631 13.8168C26.7391 13.693 26.8955 13.622 27.0598 13.622H27.2962C27.4801 13.622 27.6291 13.4729 27.6291 13.2891C27.6291 13.1052 27.4801 12.9562 27.2962 12.9562H26.8464ZM4.85417 20.5217C4.57839 20.3011 4.56562 19.8861 4.82731 19.6489L6.45903 18.1702L6.99169 18.5697L5.67914 20.4072C5.4879 20.675 5.11109 20.7273 4.85417 20.5217ZM16.6175 19.9665C16.3558 20.2036 16.3686 20.6187 16.6444 20.8393C16.9013 21.0448 17.2781 20.9925 17.4693 20.7248L18.7819 18.8872L18.2492 18.4877L16.6175 19.9665ZM7.09769 18.269C6.76733 18.1514 6.66107 17.7368 6.89415 17.4748L9.13772 14.9526H10.6438L10.6572 15.107C10.7007 15.6076 10.8384 16.0955 11.0631 16.545L11.0827 16.5841L10.0995 17.652C9.88339 17.8866 9.51541 17.8942 9.28985 17.6687C9.07516 17.454 9.07016 17.1075 9.27854 16.8867L10.2431 15.8647H9.64386L7.63333 18.1314C7.49956 18.2822 7.28761 18.3367 7.09769 18.269ZM18.6843 17.7923C18.4513 18.0543 18.5575 18.469 18.8879 18.5866C19.0778 18.6542 19.2897 18.5997 19.4235 18.4489L21.434 16.1823H22.0333L21.0687 17.2043C20.8603 17.4251 20.8654 17.7715 21.08 17.9862C21.3056 18.2118 21.6736 18.2042 21.8896 17.9695L22.8729 16.9017L22.8533 16.8625C22.6286 16.4131 22.4908 15.9252 22.4474 15.4246L22.434 15.2702H20.9279L18.6843 17.7923Z" fill="#C4C4C4"/>
</svg>
