<svg width="24" height="24" viewBox="0 0 24 24" fill="none" xmlns="http://www.w3.org/2000/svg">
<path fill-rule="evenodd" clip-rule="evenodd" d="M0.21959 23.7036C0.360236 23.8442 0.550967 23.9232 0.74984 23.9232C0.948713 23.9232 1.13944 23.8442 1.28009 23.7036L7.42409 17.5596V21.7116C7.42409 21.9105 7.50311 22.1013 7.64376 22.2419C7.78441 22.3826 7.97518 22.4616 8.17409 22.4616C8.373 22.4616 8.56377 22.3826 8.70442 22.2419C8.84507 22.1013 8.92409 21.9105 8.92409 21.7116V15.7491C8.92409 15.5502 8.84507 15.3594 8.70442 15.2188C8.56377 15.0781 8.373 14.9991 8.17409 14.9991H2.21159C2.01268 14.9991 1.82191 15.0781 1.68126 15.2188C1.54061 15.3594 1.46159 15.5502 1.46159 15.7491C1.46159 15.948 1.54061 16.1388 1.68126 16.2794C1.82191 16.4201 2.01268 16.4991 2.21159 16.4991H6.36359L0.21959 22.6431C0.0789866 22.7837 0 22.9745 0 23.1733C0 23.3722 0.0789866 23.5629 0.21959 23.7036ZM23.7036 0.21959C23.5629 0.0789866 23.3722 0 23.1733 0C22.9745 0 22.7837 0.0789866 22.6431 0.21959L16.4991 6.36359V2.21159C16.4991 2.01268 16.4201 1.82191 16.2794 1.68126C16.1388 1.54061 15.948 1.46159 15.7491 1.46159C15.5502 1.46159 15.3594 1.54061 15.2188 1.68126C15.0781 1.82191 14.9991 2.01268 14.9991 2.21159V8.17409C14.9991 8.373 15.0781 8.56377 15.2188 8.70442C15.3594 8.84507 15.5502 8.92409 15.7491 8.92409H21.7116C21.9105 8.92409 22.1013 8.84507 22.2419 8.70442C22.3826 8.56377 22.4616 8.373 22.4616 8.17409C22.4616 7.97518 22.3826 7.78441 22.2419 7.64376C22.1013 7.50311 21.9105 7.42409 21.7116 7.42409H17.5596L23.7036 1.28009C23.8442 1.13944 23.9232 0.948713 23.9232 0.74984C23.9232 0.550967 23.8442 0.360236 23.7036 0.21959Z"/>
</svg>
