<svg width="30" height="21" viewBox="0 0 30 21" fill="none" xmlns="http://www.w3.org/2000/svg">
<path fill-rule="evenodd" clip-rule="evenodd" d="M2.34166 0C1.84985 0 1.37541 0.181837 1.00958 0.510539L0.661031 0.823721C0.131726 1.29931 -0.103866 2.02103 0.0429 2.71731L0.680497 5.74219C0.874849 6.66423 1.68839 7.32417 2.6307 7.32417H4.18822L3.3745 6.28102C2.51345 5.17718 2.81176 3.58097 4.01291 2.86506C5.15076 2.18688 6.63393 2.58186 7.28312 3.73594L9.30157 7.32417H16.4353L16.2168 6.99455C15.3773 5.7281 15.7639 4.02915 17.0686 3.25154C18.3235 2.50358 19.9567 2.89284 20.7397 4.12653L22.5038 6.90605C22.5683 7.00771 22.6281 7.11215 22.6831 7.21904C23.4696 6.9523 24.0357 6.20781 24.0357 5.33112V3.36924C24.0357 2.79629 23.7891 2.25106 23.3589 1.87268L22.3587 0.992989C21.6311 0.353003 20.6952 0 19.7262 0H2.34166ZM4.41695 3.43847C5.18187 2.98256 6.17875 3.24434 6.62062 4.01715L11.816 13.1036C11.9469 13.3325 12.0157 13.5908 12.0157 13.8533L12.0157 15.3522C12.0157 15.7747 11.6711 16.1161 11.2447 16.1161C10.8154 16.1161 10.4663 15.7702 10.4663 15.3448V14.7505C10.4663 14.5563 10.4033 14.367 10.2868 14.2105L3.96406 5.71766C3.40795 4.97069 3.61777 3.91479 4.41695 3.43847ZM19.9303 4.41421C19.4681 3.62429 18.4437 3.36064 17.6574 3.82927C16.8703 4.29843 16.6286 5.31856 17.1216 6.09124L22.4939 14.5113C22.5881 14.659 22.6382 14.8301 22.6382 15.0044V15.6243C22.6382 16.0467 22.9848 16.3902 23.4111 16.3902C23.8345 16.3902 24.1766 16.0512 24.1766 15.6317V14.0435C24.1766 13.8468 24.1393 13.6516 24.0667 13.4682L21.7532 7.62154C21.6788 7.43368 21.5902 7.25163 21.488 7.07698L19.9303 4.41421ZM18.683 6.11363C19.085 6.11363 19.4109 5.79154 19.4109 5.39422C19.4109 4.9969 19.085 4.6748 18.683 4.6748C18.281 4.6748 17.9551 4.9969 17.9551 5.39422C17.9551 5.79154 18.281 6.11363 18.683 6.11363ZM14.3663 8.38313C13.9845 7.96389 13.4416 7.72436 12.8731 7.72432L10.0614 7.72412L14.3956 11.3251C14.5894 11.4861 14.7015 11.7237 14.7015 11.9737V12.4723C14.7015 12.8978 15.0506 13.2437 15.48 13.2437C15.9064 13.2437 16.251 12.9024 16.2511 12.4799L16.2514 10.7729C16.2515 10.5673 16.1743 10.3688 16.0351 10.2158L14.3663 8.38313ZM15.518 12.9186C15.7784 12.9186 15.9896 12.7099 15.9896 12.4525C15.9896 12.1951 15.7784 11.9864 15.518 11.9864C15.2576 11.9864 15.0464 12.1951 15.0464 12.4525C15.0464 12.7099 15.2576 12.9186 15.518 12.9186ZM25.1327 5.64893L28.9262 10.7583C29.1272 11.029 29.2357 11.3561 29.2356 11.6914L29.2354 13.2681C29.2354 13.6906 28.8908 14.032 28.4644 14.032C28.0351 14.032 27.6859 13.686 27.6859 13.2606V12.691C27.6859 12.482 27.6116 12.2792 27.4761 12.1184L23.9875 7.97914C24.5805 7.64429 24.9756 7.04858 25.0512 6.37531L25.1327 5.64893ZM28.9132 13.2686C28.9132 13.4892 28.7322 13.6681 28.509 13.6681C28.2858 13.6681 28.1048 13.4892 28.1048 13.2686C28.1048 13.0479 28.2858 12.8691 28.509 12.8691C28.7322 12.8691 28.9132 13.0479 28.9132 13.2686ZM13.1975 11.9851C12.9617 11.9851 12.7395 12.0954 12.597 12.2833L12.2169 12.7841L12.6211 13.3834L13.0026 12.865C13.1016 12.7304 13.2587 12.6509 13.4258 12.6509H13.6184C13.8023 12.6509 13.9513 12.5019 13.9513 12.318C13.9513 12.1342 13.8023 11.9851 13.6184 11.9851H13.1975ZM26.2592 12.918C26.0185 12.918 25.7908 13.0272 25.6402 13.2149L24.8694 14.1749V15.1071L26.0429 13.7789C26.1526 13.6548 26.3101 13.5838 26.4757 13.5838H26.7201C26.904 13.5838 27.0531 13.4348 27.0531 13.2509C27.0531 13.067 26.904 12.918 26.7201 12.918H26.2592ZM4.01008 20.4836C3.73108 20.263 3.71834 19.8478 3.98328 19.6105L5.63385 18.1321L6.17279 18.5316L4.84509 20.3687C4.65145 20.6367 4.27003 20.6891 4.01008 20.4836ZM15.9123 19.9281C15.6473 20.1654 15.6601 20.5806 15.9391 20.8012C16.199 21.0068 16.5804 20.9543 16.7741 20.6864L18.1018 18.8492L17.5628 18.4497L15.9123 19.9281ZM6.27971 18.2308C5.9455 18.1132 5.8386 17.6983 6.07486 17.4358L8.34404 14.9145H9.86785L9.88185 15.074C9.92552 15.5713 10.0638 16.0557 10.2895 16.5018L10.3119 16.546L9.31786 17.6131C9.09881 17.8482 8.72627 17.8562 8.49811 17.6307C8.28084 17.416 8.27615 17.0689 8.48753 16.8476L9.46243 15.8266H8.85613L6.82262 18.0925C6.68689 18.2438 6.47202 18.2985 6.27971 18.2308ZM18.0039 17.7532C17.7676 18.0157 17.8745 18.4306 18.2087 18.5482C18.401 18.6159 18.6159 18.5612 18.7516 18.4099L20.7851 16.144H21.3914L20.4165 17.1649C20.2051 17.3863 20.2098 17.7334 20.4271 17.9481C20.6553 18.1736 21.0278 18.1656 21.2469 17.9304L22.2409 16.8634L22.2185 16.8192C21.9928 16.3731 21.8545 15.8886 21.8108 15.3913L21.7968 15.2319H20.273L18.0039 17.7532Z" fill="#333333"/>
</svg>
