<svg width="33" height="34" viewBox="0 0 33 34" fill="none" xmlns="http://www.w3.org/2000/svg">
<circle cx="10.655" cy="26.9238" r="7.07614" fill="#CACACA"/>
<circle cx="14.452" cy="3.96954" r="3.96954" fill="#CACACA"/>
<rect x="0.472412" y="27.0964" width="20.0203" height="6.90355" fill="white"/>
<circle cx="4.5" cy="30.5" r="2.5" fill="#CACACA"/>
<circle cx="10.5" cy="30.5" r="2.5" fill="#CACACA"/>
<circle cx="16.5" cy="30.5" r="2.5" fill="#CACACA"/>
<path d="M12.3618 5.55594L14.5895 5.82322L14.5829 21.8145L8.75668 21.1154L12.3618 5.55594Z" fill="#CACACA"/>
<path d="M24.8441 9.1336L24.0175 10.4864L16.0053 7.16244L18.1672 3.62445L24.8441 9.1336Z" fill="#CACACA"/>
<circle cx="14.4521" cy="3.79705" r="2.93401" fill="white"/>
<circle cx="14.4519" cy="3.79691" r="1.89848" fill="#CACACA"/>
<rect x="29.0278" y="15.3696" width="3.92712" height="1.47491" transform="rotate(-179.978 29.0278 15.3696)" fill="#CACACA"/>
<rect x="29.9116" y="12.2876" width="4.11947" height="1.47491" transform="rotate(-113.453 29.9116 12.2876)" fill="#CACACA"/>
<rect x="25.0764" y="15.2908" width="3.82572" height="1.47491" transform="rotate(-106.314 25.0764 15.2908)" fill="#CACACA"/>
<rect x="29.9263" y="9.32471" width="3.93315" height="1.47491" transform="rotate(166.503 29.9263 9.32471)" fill="#CACACA"/>
<rect x="26.9412" y="9.52686" width="3.30675" height="1.47491" transform="rotate(121.475 26.9412 9.52686)" fill="#CACACA"/>
</svg>
