<svg width="33" height="24" viewBox="0 0 33 24" fill="none" xmlns="http://www.w3.org/2000/svg">
<path fill-rule="evenodd" clip-rule="evenodd" d="M2.5 24C3.88071 24 5 22.8807 5 21.5C5 20.1193 3.88071 19 2.5 19C1.11929 19 -3.39101e-07 20.1193 -2.18395e-07 21.5C-9.76898e-08 22.8807 1.11929 24 2.5 24ZM2.34166 17.9268C1.84985 17.9268 1.37541 17.7449 1.00958 17.4162L0.661031 17.103C0.131725 16.6274 -0.103867 15.9057 0.0428992 15.2094L0.680496 12.1846C0.874848 11.2625 1.68839 10.6026 2.6307 10.6026L16.4353 10.6026L16.2168 10.9322C15.3773 12.1987 15.7639 13.8976 17.0686 14.6752C18.3235 15.4232 19.9567 15.0339 20.7397 13.8002L22.5038 11.0207C22.5683 10.919 22.6281 10.8146 22.6831 10.7077C23.4696 10.9745 24.0357 11.7189 24.0357 12.5956L24.0357 14.5575C24.0357 15.1305 23.7891 15.6757 23.3589 16.0541L22.3587 16.9338C21.6311 17.5738 20.6952 17.9268 19.7262 17.9268L2.34166 17.9268ZM5.12237 12.6723C5.47825 12.6723 5.76675 12.9574 5.76675 13.3092C5.76675 13.6609 5.47825 13.946 5.12237 13.946C4.76649 13.946 4.47799 13.6609 4.47799 13.3092C4.47799 12.9574 4.76649 12.6723 5.12237 12.6723ZM11 21.5C11 22.8807 9.88071 24 8.5 24C7.11929 24 6 22.8807 6 21.5C6 20.1193 7.11929 19 8.5 19C9.88071 19 11 20.1193 11 21.5ZM14.5 24C15.8807 24 17 22.8807 17 21.5C17 20.1193 15.8807 19 14.5 19C13.1193 19 12 20.1193 12 21.5C12 22.8807 13.1193 24 14.5 24ZM23 21.5C23 22.8807 21.8807 24 20.5 24C19.1193 24 18 22.8807 18 21.5C18 20.1193 19.1193 19 20.5 19C21.8807 19 23 20.1193 23 21.5ZM19.9304 13.5125C19.4683 14.3024 18.4438 14.566 17.6575 14.0974C16.8704 13.6283 16.6288 12.6081 17.1217 11.8354L22.494 3.41534C22.5882 3.26764 22.6383 3.09663 22.6383 2.92226L22.6383 2.30234C22.6383 1.87996 22.9849 1.53646 23.4112 1.53646C23.8346 1.53646 24.1767 1.87547 24.1767 2.29498L24.1767 3.88316C24.1767 4.07988 24.1394 4.27503 24.0668 4.45848L21.7533 10.3051C21.679 10.493 21.5903 10.675 21.4881 10.8497L19.9304 13.5125ZM18.6831 11.8131C19.0851 11.8131 19.411 12.1351 19.411 12.5325C19.411 12.9298 19.0851 13.2519 18.6831 13.2519C18.2811 13.2519 17.9553 12.9298 17.9553 12.5325C17.9553 12.1351 18.2811 11.8131 18.6831 11.8131ZM28.9263 7.16837L25.1328 12.2778L25.0513 11.5514C24.9758 10.8781 24.5807 10.2824 23.9876 9.94754L27.4762 5.80828C27.6117 5.64744 27.686 5.44471 27.686 5.23565L27.686 4.66611C27.686 4.24068 28.0352 3.8947 28.4645 3.8947C28.8909 3.8947 29.2355 4.23611 29.2356 4.65861L29.2357 6.23529C29.2358 6.57061 29.1273 6.89764 28.9263 7.16837ZM28.5091 4.2586C28.7324 4.2586 28.9133 4.43747 28.9133 4.6581C28.9133 4.87874 28.7324 5.0576 28.5091 5.0576C28.2859 5.0576 28.1049 4.87874 28.1049 4.6581C28.1049 4.43747 28.2859 4.2586 28.5091 4.2586ZM25.2385 0.956762C25.0004 0.921409 24.7591 0.995981 24.5825 1.15951L24.2443 1.47267C24.1094 1.59759 24.1013 1.80823 24.2262 1.94314C24.3511 2.07805 24.5618 2.08615 24.6967 1.96123L24.8761 1.79513C24.9976 1.68266 25.1614 1.62773 25.3261 1.64429L27.0896 1.82158L26.4563 1.13759L25.2385 0.956762ZM25.1523 3.39653C24.9124 3.37771 24.6939 3.25104 24.5584 3.05214L24.2988 2.67123C24.1953 2.51929 24.2345 2.31218 24.3865 2.20865C24.5384 2.10511 24.7455 2.14435 24.8491 2.29629L24.9867 2.49833C25.0799 2.63513 25.2274 2.72534 25.3916 2.74606L27.1501 2.9679L26.3797 3.49281L25.1523 3.39653ZM29.9629 3.94423C30.1395 3.7807 30.3808 3.70613 30.6189 3.74148L31.8367 3.92232L32.47 4.6063L30.7065 4.42901C30.5418 4.41246 30.3779 4.46738 30.2565 4.57985L30.0771 4.74596C29.9422 4.87088 29.7315 4.86278 29.6066 4.72786C29.4817 4.59295 29.4898 4.38232 29.6247 4.2574L29.9629 3.94423ZM29.9388 5.83686C30.0743 6.03576 30.2928 6.16243 30.5327 6.18125L31.7601 6.27753L32.5304 5.75262L30.772 5.53078C30.6078 5.51006 30.4603 5.41985 30.3671 5.28306L30.2294 5.08102C30.1259 4.92907 29.9188 4.88983 29.7669 4.99337C29.6149 5.09691 29.5757 5.30401 29.6792 5.45595L29.9388 5.83686Z" fill="#C4C4C4" fill-opacity="0.9"/>
</svg>
