<svg width="24" height="24" viewBox="0 0 24 24" fill="none" xmlns="http://www.w3.org/2000/svg">
<path fill-rule="evenodd" clip-rule="evenodd" d="M8.7045 15.2205C8.56385 15.0799 8.37312 15.0009 8.17425 15.0009C7.97538 15.0009 7.78465 15.0799 7.644 15.2205L1.5 21.3645V17.2125C1.5 17.0136 1.42098 16.8228 1.28033 16.6822C1.13968 16.5415 0.948912 16.4625 0.75 16.4625C0.551088 16.4625 0.360322 16.5415 0.21967 16.6822C0.0790176 16.8228 0 17.0136 0 17.2125V23.175C0 23.3739 0.0790176 23.5647 0.21967 23.7053C0.360322 23.846 0.551088 23.925 0.75 23.925H6.7125C6.91141 23.925 7.10218 23.846 7.24283 23.7053C7.38348 23.5647 7.4625 23.3739 7.4625 23.175C7.4625 22.9761 7.38348 22.7853 7.24283 22.6447C7.10218 22.504 6.91141 22.425 6.7125 22.425H2.5605L8.7045 16.281C8.8451 16.1404 8.92409 15.9496 8.92409 15.7508C8.92409 15.5519 8.8451 15.3611 8.7045 15.2205ZM15.2205 15.2205C15.3611 15.0799 15.5519 15.0009 15.7508 15.0009C15.9496 15.0009 16.1404 15.0799 16.281 15.2205L22.425 21.3645V17.2125C22.425 17.0136 22.504 16.8228 22.6447 16.6822C22.7853 16.5415 22.9761 16.4625 23.175 16.4625C23.3739 16.4625 23.5647 16.5415 23.7053 16.6822C23.846 16.8228 23.925 17.0136 23.925 17.2125V23.175C23.925 23.3739 23.846 23.5647 23.7053 23.7053C23.5647 23.846 23.3739 23.925 23.175 23.925H17.2125C17.0136 23.925 16.8228 23.846 16.6822 23.7053C16.5415 23.5647 16.4625 23.3739 16.4625 23.175C16.4625 22.9761 16.5415 22.7853 16.6822 22.6447C16.8228 22.504 17.0136 22.425 17.2125 22.425H21.3645L15.2205 16.281C15.0799 16.1404 15.0009 15.9496 15.0009 15.7508C15.0009 15.5519 15.0799 15.3611 15.2205 15.2205ZM15.2205 8.7045C15.3611 8.8451 15.5519 8.92409 15.7508 8.92409C15.9496 8.92409 16.1404 8.8451 16.281 8.7045L22.425 2.5605V6.7125C22.425 6.91141 22.504 7.10218 22.6447 7.24283C22.7853 7.38348 22.9761 7.4625 23.175 7.4625C23.3739 7.4625 23.5647 7.38348 23.7053 7.24283C23.846 7.10218 23.925 6.91141 23.925 6.7125V0.75C23.925 0.551088 23.846 0.360322 23.7053 0.21967C23.5647 0.0790176 23.3739 0 23.175 0H17.2125C17.0136 2.96403e-09 16.8228 0.0790176 16.6822 0.21967C16.5415 0.360322 16.4625 0.551088 16.4625 0.75C16.4625 0.948912 16.5415 1.13968 16.6822 1.28033C16.8228 1.42098 17.0136 1.5 17.2125 1.5H21.3645L15.2205 7.644C15.0799 7.78465 15.0009 7.97538 15.0009 8.17425C15.0009 8.37312 15.0799 8.56385 15.2205 8.7045ZM8.7045 8.7045C8.56385 8.8451 8.37312 8.92409 8.17425 8.92409C7.97538 8.92409 7.78465 8.8451 7.644 8.7045L1.5 2.5605V6.7125C1.5 6.91141 1.42098 7.10218 1.28033 7.24283C1.13968 7.38348 0.948912 7.4625 0.75 7.4625C0.551088 7.4625 0.360322 7.38348 0.21967 7.24283C0.0790176 7.10218 0 6.91141 0 6.7125V0.75C0 0.551088 0.0790176 0.360322 0.21967 0.21967C0.360322 0.0790176 0.551088 0 0.75 0H6.7125C6.91141 2.96403e-09 7.10218 0.0790176 7.24283 0.21967C7.38348 0.360322 7.4625 0.551088 7.4625 0.75C7.4625 0.948912 7.38348 1.13968 7.24283 1.28033C7.10218 1.42098 6.91141 1.5 6.7125 1.5H2.5605L8.7045 7.644C8.8451 7.78465 8.92409 7.97538 8.92409 8.17425C8.92409 8.37312 8.8451 8.56385 8.7045 8.7045Z" fill="white"/>
</svg>
