<svg width="160" height="51" viewBox="0 0 160 51" fill="none" xmlns="http://www.w3.org/2000/svg">
<path d="M28.7999 10.4L26.1668 14.8411L23.6982 19.2822L21.2296 14.8411L18.5965 10.4H28.7999Z" fill="#333333"/>
<path d="M16.9509 10.4L14.8114 14.1831L12.672 17.8018L10.5326 14.1831L8.39316 10.4H16.9509Z" fill="#4C4C4C"/>
<path d="M16.1281 14.8411L18.5966 10.4L21.2298 14.8411L23.6983 19.2822L21.2298 23.5588L18.5966 28L16.1281 23.5588L13.4949 19.2822L16.1281 14.8411Z" fill="#4C4C4C"/>
<path d="M0 10.4L1.64571 13.3607L3.29143 16.3215L5.10171 13.3607L6.74743 10.4H0Z" fill="#979797"/>
<path d="M10.5324 14.1831L8.393 10.4L6.25357 14.1831L4.27872 17.8018L6.25357 21.4205L8.393 25.0392L10.5324 21.4205L12.6719 17.8018L10.5324 14.1831Z" fill="#979797"/>
<path d="M43.2243 13.7333L46.6634 22.4L51.2487 10.9H49.9386L46.4996 19.2333L43.2243 10.4L39.7853 19.2333L36.5101 10.9H35.2L39.7853 22.4L43.2243 13.7333Z" fill="#333333"/>
<path d="M85.1474 22.3995H93.1718V21.3995H86.4575V17.2328H92.5167V16.2328H86.4575V11.8995H93.3356V10.8995H85.3112V22.3995H85.1474Z" fill="#333333"/>
<path d="M107.583 22.3997H109.057C108.238 21.233 107.419 20.233 106.6 19.0664L106.109 18.3997L106.764 18.0664C107.419 17.733 107.91 17.3997 108.402 16.733C108.893 16.0664 109.057 15.3997 109.057 14.5664C109.057 14.0664 108.893 13.5664 108.729 13.0664C108.566 12.5664 108.238 12.233 107.91 11.8997C107.583 11.5664 107.255 11.233 106.764 11.0664C106.273 10.8997 105.782 10.733 105.29 10.733H100.214V22.233H101.524V18.233H104.799L104.963 18.3997C105.454 19.0664 105.945 19.733 106.437 20.3997C106.764 21.233 107.092 21.733 107.583 22.3997ZM105.29 17.233H101.36V11.733H105.29C105.782 11.733 106.273 11.8997 106.6 12.0664C106.928 12.233 107.255 12.5664 107.419 12.8997C107.583 13.233 107.747 13.5664 107.747 13.8997C107.747 14.233 107.747 14.3997 107.747 14.733C107.747 15.233 107.747 15.5664 107.583 15.8997C107.419 16.233 107.255 16.5664 107.092 16.733C106.928 16.8997 106.6 17.0664 106.273 17.233C105.945 17.233 105.618 17.233 105.29 17.233Z" fill="#333333"/>
<path d="M115.935 22.3995H123.795V21.3995H117.245V10.8995H115.935V22.3995Z" fill="#333333"/>
<path d="M129.854 22.3995H137.879V21.3995H131.001V17.2328H137.06V16.2328H131.001V11.8995H137.879V10.8995H129.854V22.3995Z" fill="#333333"/>
<path d="M148.032 22.3995H149.342V18.0662V17.8995C149.67 17.3995 149.997 16.7328 150.489 16.0662L153.109 11.8995C153.273 11.5662 153.436 11.2328 153.6 10.8995H152.126C151.962 11.2328 151.799 11.5662 151.471 11.8995L150.652 13.2328C150.325 13.7328 150.161 14.2328 149.834 14.5662C149.506 15.0662 149.342 15.3995 149.015 15.8995L148.687 16.7328L148.196 15.8995C147.705 15.0662 147.213 14.0662 146.558 13.2328C146.067 12.3995 145.576 11.5662 145.085 10.8995H143.774C144.429 11.8995 144.921 12.8995 145.576 13.8995C146.395 15.2328 147.213 16.5662 147.868 17.8995V18.0662V22.3995H148.032Z" fill="#333333"/>
<path d="M65.6598 22.3995L59.9281 10.8995L54.1965 22.3995H55.5066L59.9281 13.5662L64.3497 22.3995H65.6598Z" fill="#333333"/>
<path d="M68.4437 10.733L74.1754 22.233L79.9071 10.733H78.597L74.1754 19.5664L69.7538 10.733H68.4437Z" fill="#333333"/>
<path d="M99.936 38.6912C99.2533 39.3824 98.2933 39.728 97.056 39.728C95.8187 39.728 94.8544 39.3824 94.1632 38.6912C93.472 37.9914 93.1264 36.993 93.1264 35.696V30.64H94.7904V35.632C94.7904 37.3898 95.5499 38.2688 97.0688 38.2688C98.5792 38.2688 99.3344 37.3898 99.3344 35.632V30.64H100.973V35.696C100.973 36.993 100.627 37.9914 99.936 38.6912ZM109.678 39.6L106.516 35.8496L105.095 37.3088V39.6H103.431V30.64H105.095V35.2352L109.524 30.64H111.393L107.63 34.6464L111.623 39.6H109.678ZM120.539 39.6H118.747L116.916 36.976C116.839 36.9845 116.724 36.9888 116.571 36.9888H114.548V39.6H112.884V30.64H116.571C117.748 30.64 118.678 30.9258 119.361 31.4976C120.044 32.0608 120.385 32.8373 120.385 33.8272C120.385 34.5013 120.219 35.0816 119.886 35.568C119.562 36.0544 119.092 36.417 118.478 36.656L120.539 39.6ZM118.145 35.1584C118.52 34.8426 118.708 34.3989 118.708 33.8272C118.708 33.2554 118.52 32.816 118.145 32.5088C117.77 32.2016 117.219 32.048 116.494 32.048H114.548V35.6192H116.494C117.219 35.6192 117.77 35.4656 118.145 35.1584ZM129.082 39.6L128.186 37.5264H123.706L122.823 39.6H121.108L125.14 30.64H126.778L130.823 39.6H129.082ZM124.269 36.2208H127.636L125.946 32.304L124.269 36.2208ZM132.09 39.6V30.64H133.754V39.6H132.09ZM142.616 30.64H144.267V39.6H142.898L137.957 33.5328V39.6H136.306V30.64H137.675L142.616 36.7072V30.64ZM148.46 38.2048H153.516V39.6H146.796V30.64H153.337V32.0352H148.46V34.3648H152.787V35.7344H148.46V38.2048Z" fill="#979797"/>
</svg>
