<svg width="17" height="24" viewBox="0 0 17 24" fill="none" xmlns="http://www.w3.org/2000/svg">
<path d="M13.1268 0.102663C13.2736 0.18777 13.3872 0.320148 13.4491 0.478169C13.5109 0.63619 13.5173 0.810514 13.4673 0.972663L10.7658 9.75066H15.7503C15.8968 9.7506 16.0401 9.79344 16.1625 9.87389C16.2849 9.95434 16.3811 10.0689 16.4392 10.2034C16.4972 10.3378 16.5146 10.4864 16.4893 10.6306C16.4639 10.7749 16.3968 10.9086 16.2963 11.0152L4.2963 23.7652C4.18019 23.8886 4.02568 23.9691 3.85796 23.9935C3.69024 24.018 3.51919 23.9848 3.3727 23.8996C3.22622 23.8143 3.11292 23.682 3.05129 23.5241C2.98965 23.3662 2.98331 23.1921 3.0333 23.0302L5.7348 14.2507H0.750299C0.603817 14.2507 0.460523 14.2079 0.338108 14.1274C0.215693 14.047 0.119515 13.9325 0.0614468 13.798C0.00337887 13.6635 -0.0140369 13.5149 0.0113492 13.3707C0.0367354 13.2264 0.103812 13.0927 0.204299 12.9862L12.2043 0.236163C12.3203 0.112861 12.4745 0.0324155 12.642 0.00790543C12.8095 -0.0166046 12.9804 0.0162624 13.1268 0.101163V0.102663ZM2.4858 12.7507H6.7503C6.86767 12.7506 6.98341 12.7782 7.08821 12.831C7.193 12.8839 7.28393 12.9606 7.35367 13.055C7.42342 13.1494 7.47003 13.2589 7.48977 13.3746C7.5095 13.4903 7.50181 13.609 7.4673 13.7212L5.4153 20.3857L14.0133 11.2507H9.7503C9.63293 11.2507 9.51719 11.2232 9.41239 11.1703C9.3076 11.1174 9.21667 11.0407 9.14692 10.9463C9.07718 10.8519 9.03057 10.7425 9.01083 10.6268C8.9911 10.5111 8.99879 10.3923 9.0333 10.2802L11.0853 3.61566L2.4858 12.7507Z" fill="#6FCF41"/>
</svg>
