<svg width="36" height="36" viewBox="0 0 36 36" fill="none" xmlns="http://www.w3.org/2000/svg">
<path fill-rule="evenodd" clip-rule="evenodd" d="M3.70095 6C3.16327 6 2.64265 6.1887 2.22984 6.53321L1.82493 6.87114C1.16274 7.42377 0.866125 8.3009 1.05701 9.14201L1.78761 12.3614C2.02491 13.407 2.95438 14.1492 4.02663 14.1492H5.99754L5.09187 13.0708C4.02482 11.8003 4.3519 9.98191 5.79076 9.18538C7.15135 8.43218 8.94885 8.90841 9.75225 10.235L12.1228 14.1492H20.668L20.4725 13.8753C19.4311 12.4162 19.8657 10.4822 21.4295 9.6165C22.9315 8.78497 24.9118 9.25598 25.8818 10.6755L27.927 13.6685C28.0107 13.791 28.0881 13.9169 28.159 14.0458C29.0933 13.755 29.7716 12.8833 29.7716 11.8532V9.835C29.7716 9.14575 29.462 8.49297 28.9282 8.05692L27.6782 7.03577C26.8582 6.36591 25.832 6 24.7731 6H3.70095ZM6.27268 9.82432C7.18766 9.3178 8.39619 9.63364 8.94323 10.5223L15.1196 20.5554C15.2858 20.8254 15.3735 21.1295 15.3735 21.4363L15.3735 23.0938C15.3735 23.5609 14.9776 23.9311 14.4781 23.9311C13.9531 23.9311 13.5174 23.5236 13.5174 23.0326V22.4117C13.5174 22.196 13.441 21.9838 13.3003 21.8082L5.77265 12.4167C5.08336 11.5568 5.31529 10.3543 6.27268 9.82432ZM24.8883 10.9669C24.3155 10.0574 23.0722 9.7388 22.1305 10.2601C21.1877 10.782 20.9151 11.9421 21.5262 12.8317L27.9226 22.1432C28.0364 22.3088 28.097 22.5002 28.097 22.6939V23.3439C28.097 23.8314 28.5296 24.236 29.0509 24.236C29.5469 24.236 29.9399 23.8684 29.9399 23.4046V21.6418C29.9399 21.4119 29.8925 21.1826 29.8004 20.9664L27.0432 14.4945C26.9499 14.2756 26.8386 14.0632 26.7103 13.8595L24.8883 10.9669ZM23.361 12.8008C23.8426 12.8008 24.233 12.4425 24.233 12.0004C24.233 11.5583 23.8426 11.1999 23.361 11.1999C22.8795 11.1999 22.4891 11.5583 22.4891 12.0004C22.4891 12.4425 22.8795 12.8008 23.361 12.8008ZM18.2048 15.3447C17.7369 14.8675 17.0794 14.5942 16.3994 14.5941L13.0306 14.5939L18.2197 18.5981C18.453 18.7782 18.5891 19.0453 18.5891 19.3232V19.8367C18.5891 20.3277 19.0248 20.7353 19.5499 20.7353C20.0494 20.7353 20.4452 20.3651 20.4454 19.898L20.4458 18.0062C20.4458 17.7651 20.347 17.5299 20.1696 17.3489L18.2048 15.3447ZM19.5685 20.3731C19.8805 20.3731 20.1334 20.1409 20.1334 19.8545C20.1334 19.5681 19.8805 19.3359 19.5685 19.3359C19.2565 19.3359 19.0036 19.5681 19.0036 19.8545C19.0036 20.1409 19.2565 20.3731 19.5685 20.3731ZM31.0843 12.2844L35.6061 17.9411C35.8611 18.2602 35.9993 18.6453 35.9993 19.0369L35.9991 20.7744C35.999 21.2416 35.6031 21.6118 35.1036 21.6118C34.5786 21.6118 34.1428 21.2042 34.1428 20.7132V20.1201C34.1428 19.8877 34.0527 19.6603 33.889 19.4799L29.7124 14.8771C30.4245 14.5037 30.8971 13.834 30.9897 13.0669L31.0843 12.2844ZM35.6141 20.7605C35.6141 21.006 35.3973 21.205 35.1299 21.205C34.8624 21.205 34.6457 21.006 34.6457 20.7605C34.6457 20.5151 34.8624 20.316 35.1299 20.316C35.3973 20.316 35.6141 20.5151 35.6141 20.7605ZM16.7755 19.3334C16.5004 19.3334 16.2398 19.457 16.0657 19.67L15.6145 20.2224L16.0987 20.8891L16.5524 20.3164C16.6736 20.1634 16.8581 20.0742 17.0532 20.0742H17.3217C17.5263 20.0742 17.6922 19.9084 17.6922 19.7038C17.6922 19.4992 17.5263 19.3334 17.3217 19.3334H16.7755ZM32.4213 20.3708C32.1409 20.3708 31.8743 20.4927 31.6909 20.7049L30.7709 21.7693V22.8065L32.1756 21.3299C32.3081 21.1905 32.4921 21.1116 32.6844 21.1116H33.0163C33.2209 21.1116 33.3867 20.9457 33.3867 20.7412C33.3867 20.5366 33.2209 20.3708 33.0163 20.3708H32.4213ZM5.78319 28.79C5.44913 28.5447 5.43522 28.0818 5.75394 27.8167L7.72865 26.1738L8.37425 26.6183L6.78597 28.6596C6.55288 28.9592 6.09466 29.0188 5.78319 28.79ZM20.0435 28.1691C19.7248 28.4343 19.7387 28.8971 20.0727 29.1425C20.3842 29.3712 20.8424 29.3116 21.0755 29.012L22.6638 26.9707L22.0182 26.5262L20.0435 28.1691ZM8.50048 26.2817C8.10045 26.1509 7.97693 25.6872 8.26339 25.3915L10.9756 22.5925H12.8011L12.8185 22.7773C12.8704 23.3258 13.0339 23.8587 13.3005 24.3483L13.333 24.4078L12.148 25.5892C11.8823 25.8542 11.4342 25.8662 11.1613 25.6157C10.9006 25.3764 10.8979 24.9861 11.1552 24.7358L12.3154 23.6074H11.5891L9.1582 26.1232C8.99264 26.2946 8.73204 26.3573 8.50048 26.2817ZM22.5529 25.7449C22.2665 26.0406 22.39 26.5043 22.79 26.635C23.0216 26.7107 23.2822 26.648 23.4478 26.4766L25.8787 23.9607H26.605L25.4448 25.0892C25.1875 25.3395 25.1902 25.7298 25.4509 25.9691C25.7238 26.2196 26.1718 26.2076 26.4376 25.9426L27.6225 24.7612L27.5901 24.7016C27.3235 24.2121 27.1599 23.6792 27.1081 23.1307L27.0906 22.9459H25.2652L22.5529 25.7449Z" />
</svg>
