<svg width="36" height="36" viewBox="0 0 36 36" fill="none" xmlns="http://www.w3.org/2000/svg">
<path d="M12.8385 25.6793C12.5741 25.4684 11.5788 24.3573 11.5788 24.3573L7.68196 24.3262C7.27068 24.3227 7.02011 24.7323 7.20156 25.1125C7.30697 25.3319 7.53162 25.4771 7.77009 25.4788L11.2677 25.5013L11.7688 26.0266L10.1514 25.9661C9.79193 25.9523 9.51199 26.2236 9.5189 26.5779C9.52581 26.9477 9.84378 27.2639 10.2188 27.2743L13.0165 27.2639C13.0165 27.2639 12.2285 26.1597 12.8385 25.6793Z" />
<path d="M4.19497 24.1844C3.78369 24.136 3.45708 24.4661 3.51065 24.8774C3.56077 25.261 3.9202 25.5513 4.29692 25.5133L6.87002 25.2541L6.7456 24.4799L4.19324 24.1844H4.19497Z" />
<path d="M8.94328 13.5257C8.39548 12.6375 7.18756 12.3212 6.27341 12.8276C5.31606 13.3581 5.0845 14.5608 5.77399 15.4197L13.3015 24.8117C13.4414 24.988 13.5192 25.1988 13.5192 25.4148V26.0352C13.5192 26.526 13.9547 26.9338 14.48 26.9338C15.0053 26.9338 15.3752 26.564 15.3752 26.0957V24.4385C15.3752 24.1309 15.287 23.8267 15.1211 23.5571L8.94328 13.5257Z" />
<path d="M5.99727 17.153L5.09177 16.0747C4.02382 14.8046 4.35215 12.9849 5.78991 12.1883C7.1499 11.4349 8.94882 11.9118 9.75237 13.2372L12.1233 17.1513H20.6686L20.4733 16.8765C19.4313 15.4181 19.8668 13.4826 21.4307 12.6169C22.9324 11.7856 24.9127 12.2557 25.8839 13.6762L27.9299 16.6692C28.0129 16.7919 28.0906 16.918 28.1615 17.0459C29.0964 16.7556 29.7738 15.8829 29.7738 14.853V12.8346C29.7738 12.1451 29.4645 11.4919 28.9305 11.0564L27.6811 10.0351C26.8603 9.36462 25.8355 9 24.7762 9H3.70067C3.16324 9 2.64309 9.18836 2.23008 9.53397L1.82571 9.87268C1.16213 10.4274 0.866635 11.3052 1.05672 12.1451L1.7877 15.3645C2.02444 16.41 2.95414 17.153 4.02727 17.153H5.999H5.99727Z" />
<path d="M35.6073 20.9438L31.085 15.2861L30.9899 16.0689C30.8966 16.8362 30.4249 17.505 29.7129 17.88L33.8896 22.4835C34.0538 22.6633 34.1437 22.8914 34.1437 23.1229V23.7157C34.1437 24.2064 34.5791 24.6143 35.1045 24.6143C35.6298 24.6143 35.9996 24.2444 35.9996 23.7761V22.0377C35.9996 21.6454 35.8614 21.2618 35.6073 20.9421V20.9438ZM35.1304 24.2082C34.8625 24.2082 34.6465 24.0094 34.6465 23.764C34.6465 23.5187 34.8625 23.3199 35.1304 23.3199C35.3982 23.3199 35.6142 23.5187 35.6142 23.764C35.6142 24.0094 35.3982 24.2082 35.1304 24.2082Z" />
<path d="M19.5501 23.7382C20.0495 23.7382 20.4452 23.3684 20.4452 22.9001V21.0079C20.4452 20.766 20.3467 20.5309 20.1687 20.3512L18.2039 18.3467C17.7356 17.8697 17.0789 17.5967 16.3981 17.5967H13.0283L18.2177 21.6006C18.451 21.7803 18.5875 22.0482 18.5875 22.3264V22.8396C18.5875 23.3304 19.023 23.7382 19.5483 23.7382H19.5501ZM19.5691 22.3385C19.8818 22.3385 20.1341 22.5701 20.1341 22.8569C20.1341 23.1438 19.8818 23.3753 19.5691 23.3753C19.2563 23.3753 19.004 23.1438 19.004 22.8569C19.004 22.5701 19.2563 22.3385 19.5691 22.3385Z" />
<path d="M27.0448 17.4992C26.9515 17.2798 26.8409 17.0672 26.7113 16.865L24.8899 13.9722C24.3179 13.0633 23.0737 12.7436 22.1319 13.2655C21.1884 13.7873 20.9171 14.9469 21.5271 15.8368L27.9244 25.1494C28.0385 25.3153 28.0989 25.5071 28.0989 25.7007V26.3504C28.0989 26.8377 28.531 27.2421 29.0528 27.2421C29.5747 27.2421 29.9411 26.874 29.9411 26.4109V24.6483C29.9411 24.4184 29.8944 24.1886 29.8011 23.9726L27.0431 17.501L27.0448 17.4992ZM23.3623 15.8057C22.8802 15.8057 22.4896 15.448 22.4896 15.0056C22.4896 14.5632 22.8802 14.2055 23.3623 14.2055C23.8444 14.2055 24.235 14.5632 24.235 15.0056C24.235 15.448 23.8444 15.8057 23.3623 15.8057Z" />
<path d="M27.2799 25.8033C27.0155 25.5925 26.0202 24.4813 26.0202 24.4813L22.1234 24.4502C21.7121 24.4468 21.4615 24.8563 21.643 25.2365C21.7484 25.456 21.973 25.6011 22.2115 25.6028L25.7091 25.6253L26.2103 26.1506L24.5928 26.0902C24.2333 26.0763 23.9534 26.3476 23.9603 26.7019C23.9672 27.0717 24.2852 27.3879 24.6602 27.3983L27.4579 27.3879C27.4579 27.3879 26.6699 26.2837 27.2799 25.8033Z" />
<path d="M18.6364 24.3094C18.2251 24.261 17.8985 24.5911 17.9521 25.0024C18.0022 25.386 18.3616 25.6763 18.7383 25.6383L21.3114 25.3791L21.187 24.6049L18.6346 24.3094H18.6364Z" />
<path d="M17.6458 22.3379H17.1205C17.0825 22.3379 16.139 22.3413 15.8573 22.3465C15.8141 22.3465 15.7812 22.3828 15.7812 22.426V23.1276C15.7812 23.1743 15.8245 23.2071 15.8694 23.1967C16.1977 23.1224 17.2657 23.081 17.3987 23.081H17.6666C17.8843 23.081 18.0571 22.8943 18.0347 22.6731C18.0156 22.4796 17.8394 22.3413 17.6458 22.3413V22.3379Z" />
<path d="M32.884 23.3867H32.274C32.2308 23.3867 31.1335 23.3902 30.8086 23.3954C30.7585 23.3954 30.7188 23.4368 30.7188 23.4869V24.3009C30.7188 24.3544 30.7689 24.3925 30.8207 24.3821C31.2009 24.2957 32.4416 24.2473 32.5954 24.2473H32.9065C33.1588 24.2473 33.3592 24.0313 33.335 23.7738C33.3126 23.5492 33.1069 23.3884 32.8823 23.3884L32.884 23.3867Z" />
</svg>
