<svg width="20" height="16" viewBox="0 0 20 16" fill="none" xmlns="http://www.w3.org/2000/svg">
<path d="M18.3645 4.55108L17.1345 6.40108C17.7277 7.58415 18.0181 8.89591 17.9797 10.2188C17.9413 11.5417 17.5753 12.8344 16.9145 13.9811H3.05455C2.19571 12.4912 1.83984 10.7642 2.03969 9.05615C2.23953 7.34809 2.98446 5.7499 4.16403 4.49851C5.3436 3.24711 6.89501 2.40912 8.58829 2.10877C10.2816 1.80843 12.0265 2.06171 13.5645 2.83108L15.4145 1.60108C13.531 0.393294 11.2969 -0.147917 9.06944 0.0640146C6.842 0.275946 4.74999 1.22878 3.12804 2.77009C1.50609 4.31141 0.447909 6.35215 0.122765 8.56589C-0.20238 10.7796 0.224298 13.0385 1.33455 14.9811C1.50906 15.2834 1.75964 15.5347 2.06138 15.7101C2.36312 15.8856 2.70552 15.979 3.05455 15.9811H16.9045C17.257 15.9825 17.6035 15.8907 17.9091 15.7151C18.2146 15.5395 18.4683 15.2863 18.6445 14.9811C19.5659 13.385 20.0283 11.5653 19.9807 9.72303C19.933 7.88072 19.3772 6.0874 18.3745 4.54108L18.3645 4.55108Z" fill="#28BDEB"/>
<path d="M8.57455 11.3911C8.76029 11.577 8.98087 11.7245 9.22367 11.8252C9.46646 11.9258 9.72672 11.9777 9.98955 11.9777C10.2524 11.9777 10.5126 11.9258 10.7554 11.8252C10.9982 11.7245 11.2188 11.577 11.4045 11.3911L17.0645 2.90108L8.57455 8.56108C8.38859 8.74682 8.24108 8.9674 8.14043 9.2102C8.03978 9.45299 7.98797 9.71325 7.98797 9.97608C7.98797 10.2389 8.03978 10.4992 8.14043 10.742C8.24108 10.9848 8.38859 11.2053 8.57455 11.3911Z" fill="#28BDEB"/>
</svg>
