<svg width="36" height="36" viewBox="0 0 36 36" fill="none" xmlns="http://www.w3.org/2000/svg">
<g clip-path="url(#clip0_810_11237)">
<path d="M15.9525 8.21017C17.3011 7.92736 18.6937 7.92668 20.0426 8.20817C20.1325 8.80133 20.3549 9.36661 20.6933 9.86199C21.0317 10.3574 21.4773 10.7701 21.9972 11.0696C22.5167 11.37 23.0972 11.5495 23.6955 11.5947C24.2939 11.6399 24.8948 11.5496 25.4535 11.3305C26.3716 12.3583 27.067 13.5651 27.496 14.8747C27.0275 15.2492 26.6493 15.7245 26.3897 16.2652C26.1301 16.8059 25.9956 17.3982 25.9964 17.9981C25.9964 19.2618 26.5822 20.3885 27.498 21.1214C27.0665 22.43 26.3702 23.6357 25.4525 24.6636C24.8939 24.4447 24.2933 24.3545 23.6951 24.3997C23.0969 24.4448 22.5165 24.6243 21.9972 24.9246C21.4778 25.2239 21.0324 25.6364 20.6942 26.1314C20.356 26.6264 20.1336 27.1912 20.0436 27.7839C18.6951 28.0674 17.3025 28.0688 15.9535 27.7879C15.864 27.1943 15.6418 26.6284 15.3034 26.1324C14.965 25.6365 14.5191 25.2233 13.9989 24.9236C13.4794 24.6233 12.8988 24.4439 12.3004 24.3989C11.702 24.3539 11.1012 24.4444 10.5426 24.6636C9.62441 23.6355 8.92896 22.4284 8.50005 21.1184C8.96834 20.7441 9.34633 20.2691 9.60595 19.7288C9.86557 19.1884 10.0002 18.5965 9.99973 17.9971C10.0002 17.3971 9.86547 16.8047 9.60548 16.2639C9.3455 15.7232 8.96697 15.248 8.49805 14.8737C8.92962 13.5651 9.62593 12.3594 10.5436 11.3315C11.1022 11.5504 11.7028 11.6406 12.301 11.5954C12.8992 11.5503 13.4796 11.3709 13.9989 11.0706C14.5183 10.7712 14.9637 10.3587 15.3019 9.86372C15.6401 9.36871 15.8624 8.80388 15.9525 8.21117V8.21017ZM17.998 20.9974C18.7935 20.9974 19.5564 20.6814 20.1189 20.1189C20.6814 19.5564 20.9974 18.7935 20.9974 17.9981C20.9974 17.2026 20.6814 16.4397 20.1189 15.8772C19.5564 15.3147 18.7935 14.9987 17.998 14.9987C17.2026 14.9987 16.4397 15.3147 15.8772 15.8772C15.3147 16.4397 14.9987 17.2026 14.9987 17.9981C14.9987 18.7935 15.3147 19.5564 15.8772 20.1189C16.4397 20.6814 17.2026 20.9974 17.998 20.9974V20.9974Z" stroke-width="1.8" stroke-linejoin="round"/>
</g>
<defs>
<clipPath id="clip0_810_11237">
<rect width="24" height="24" fill="white" transform="translate(6 6)"/>
</clipPath>
</defs>
</svg>
