<svg width="416" height="177" viewBox="0 0 416 177" fill="none" xmlns="http://www.w3.org/2000/svg">
<path d="M314.958 96.8317H319.035V100.909C319.035 102.03 319.952 102.947 321.074 102.947C322.195 102.947 323.112 102.03 323.112 100.909V94.7931C323.112 93.6719 322.195 92.7545 321.074 92.7545H314.958C313.837 92.7545 312.919 93.6719 312.919 94.7931C312.919 95.9143 313.837 96.8317 314.958 96.8317ZM319.035 80.5232H314.958C313.837 80.5232 312.919 81.4405 312.919 82.5617C312.919 83.6829 313.837 84.6003 314.958 84.6003H321.074C322.195 84.6003 323.112 83.6829 323.112 82.5617V76.446C323.112 75.3248 322.195 74.4075 321.074 74.4075C319.952 74.4075 319.035 75.3248 319.035 76.446V80.5232ZM333.305 102.947C334.426 102.947 335.344 102.03 335.344 100.909V96.8317H339.421C340.542 96.8317 341.459 95.9143 341.459 94.7931C341.459 93.6719 340.542 92.7545 339.421 92.7545H333.305C332.184 92.7545 331.267 93.6719 331.267 94.7931V100.909C331.267 102.03 332.184 102.947 333.305 102.947ZM335.344 80.5232V76.446C335.344 75.3248 334.426 74.4075 333.305 74.4075C332.184 74.4075 331.267 75.3248 331.267 76.446V82.5617C331.267 83.6829 332.184 84.6003 333.305 84.6003H339.421C340.542 84.6003 341.459 83.6829 341.459 82.5617C341.459 81.4405 340.542 80.5232 339.421 80.5232H335.344Z" fill="#333333"/>
<path fill-rule="evenodd" clip-rule="evenodd" d="M361.462 7.54784C335.889 -1.14492 321.121 -1.30166 293.936 7.54784V54.4043H247.685C238.135 79.8322 237.965 94.7541 247.685 121.93H293.936V168.18C320.538 178.166 335.315 177.917 361.462 168.18V121.93H407.712C417.115 96.4504 417.493 81.7993 407.712 54.4043H361.462V7.54784Z" fill="url(#paint0_radial_522_8979)" fill-opacity="0.47"/>
<path d="M336.363 149.834H318.016L327.189 159.008L336.363 149.834Z" fill="#333333"/>
<path d="M383.25 79.5038V97.8508L392.423 88.6773L383.25 79.5038Z" fill="#333333"/>
<g filter="url(#filter0_d_522_8979)">
<path d="M318.016 27.5205L336.363 27.5205L327.189 18.347L318.016 27.5205Z" fill="#333333"/>
</g>
<path d="M267.052 97.8507V79.5037L257.878 88.6772L267.052 97.8507Z" fill="#333333"/>
<circle cx="327.699" cy="88.1678" r="87.1486" stroke="#333333" stroke-width="2.03856"/>
<path d="M24.1652 82.9175L20.327 93.4846H18.7582L23.1778 81.8903H24.1891L24.1652 82.9175ZM27.3823 93.4846L23.5361 82.9175L23.5122 81.8903H24.5235L28.959 93.4846H27.3823ZM27.1832 89.1925V90.4507H20.6694V89.1925H27.1832Z" fill="#333333"/>
<path d="M89.198 155.788C89.198 155.518 89.1555 155.279 89.0706 155.072C88.9909 154.859 88.8476 154.668 88.6406 154.498C88.4388 154.328 88.1575 154.166 87.7965 154.013C87.4408 153.859 86.9895 153.702 86.4427 153.543C85.8694 153.373 85.3518 153.184 84.8899 152.977C84.4281 152.765 84.0326 152.523 83.7034 152.253C83.3743 151.982 83.1221 151.671 82.9469 151.321C82.7717 150.971 82.6841 150.57 82.6841 150.119C82.6841 149.667 82.777 149.251 82.9628 148.868C83.1487 148.486 83.4141 148.154 83.7592 147.873C84.1095 147.586 84.5263 147.363 85.0094 147.204C85.4925 147.045 86.0313 146.965 86.6259 146.965C87.4965 146.965 88.2344 147.132 88.8396 147.467C89.4501 147.796 89.9147 148.229 90.2332 148.765C90.5517 149.296 90.711 149.864 90.711 150.469H89.1821C89.1821 150.034 89.0892 149.649 88.9033 149.314C88.7175 148.975 88.4362 148.709 88.0593 148.518C87.6823 148.322 87.2045 148.223 86.6259 148.223C86.0791 148.223 85.6278 148.306 85.2722 148.47C84.9165 148.635 84.651 148.858 84.4758 149.139C84.306 149.42 84.221 149.742 84.221 150.103C84.221 150.347 84.2715 150.57 84.3723 150.772C84.4785 150.968 84.6404 151.151 84.8581 151.321C85.081 151.491 85.3624 151.647 85.7022 151.791C86.0472 151.934 86.4587 152.072 86.9365 152.205C87.5947 152.391 88.1628 152.598 88.6406 152.826C89.1184 153.054 89.5112 153.312 89.8191 153.598C90.1323 153.88 90.3633 154.201 90.5119 154.562C90.6659 154.918 90.7428 155.321 90.7428 155.772C90.7428 156.245 90.6473 156.672 90.4562 157.054C90.265 157.437 89.9916 157.763 89.636 158.034C89.2803 158.305 88.8529 158.514 88.3539 158.663C87.8602 158.806 87.3081 158.878 86.6976 158.878C86.1614 158.878 85.6332 158.804 85.1129 158.655C84.5979 158.506 84.1281 158.283 83.7034 157.986C83.284 157.689 82.9469 157.323 82.6921 156.887C82.4426 156.447 82.3178 155.937 82.3178 155.358H83.8468C83.8468 155.756 83.9237 156.099 84.0777 156.386C84.2316 156.667 84.4413 156.9 84.7068 157.086C84.9775 157.272 85.2828 157.41 85.6225 157.5C85.9676 157.585 86.3259 157.628 86.6976 157.628C87.2337 157.628 87.6876 157.553 88.0593 157.405C88.4309 157.256 88.7122 157.044 88.9033 156.768C89.0998 156.492 89.198 156.165 89.198 155.788Z" fill="#333333"/>
<path d="M85.1801 26.7853L87.4815 18.6947H88.5963L87.9513 21.8402L85.4747 30.2891H84.3679L85.1801 26.7853ZM82.7991 18.6947L84.6307 26.626L85.1801 30.2891H84.0812L81.2702 18.6947H82.7991ZM91.5745 26.6181L93.3662 18.6947H94.9031L92.1001 30.2891H91.0012L91.5745 26.6181ZM88.7635 18.6947L91.0012 26.7853L91.8134 30.2891H90.7065L88.3176 21.8402L87.6646 18.6947H88.7635Z" fill="#333333"/>
<path d="M147.437 95.5232H145.016L145.032 94.273H147.437C148.265 94.273 148.956 94.1004 149.508 93.7554C150.06 93.405 150.474 92.9166 150.75 92.2902C151.031 91.6584 151.172 90.9205 151.172 90.0764V89.3677C151.172 88.7041 151.092 88.1148 150.933 87.5999C150.774 87.0796 150.54 86.6416 150.232 86.286C149.924 85.925 149.548 85.6516 149.102 85.4657C148.661 85.2799 148.154 85.187 147.581 85.187H144.969V83.9289H147.581C148.34 83.9289 149.033 84.0563 149.659 84.3111C150.285 84.5606 150.824 84.9243 151.276 85.402C151.732 85.8745 152.082 86.4479 152.327 87.1221C152.571 87.791 152.693 88.5448 152.693 89.3836V90.0764C152.693 90.9152 152.571 91.6717 152.327 92.3459C152.082 93.0148 151.729 93.5855 151.268 94.058C150.811 94.5305 150.259 94.8941 149.611 95.1489C148.969 95.3984 148.244 95.5232 147.437 95.5232ZM145.837 83.9289V95.5232H144.3V83.9289H145.837Z" fill="#333333"/>
<path d="M91.9391 81.9563V75.8345C91.9391 75.0496 91.297 74.4075 90.5121 74.4075H84.8041C84.0193 74.4075 83.3771 75.0496 83.3771 75.8345V81.9563C83.3771 82.1418 83.4485 82.3273 83.5912 82.4557L87.1587 86.0232C87.4441 86.3086 87.8864 86.3086 88.1718 86.0232L91.7393 82.4557C91.8678 82.3273 91.9391 82.1561 91.9391 81.9563ZM80.937 84.3964H74.8152C74.0303 84.3964 73.3882 85.0386 73.3882 85.8234V91.5314C73.3882 92.3163 74.0303 92.9584 74.8152 92.9584H80.937C81.1225 92.9584 81.308 92.8871 81.4364 92.7444L85.0039 89.1769C85.2893 88.8915 85.2893 88.4491 85.0039 88.1637L81.4364 84.5962C81.308 84.4678 81.1368 84.3964 80.937 84.3964ZM83.3771 95.3986V101.52C83.3771 102.305 84.0193 102.947 84.8041 102.947H90.5121C91.297 102.947 91.9391 102.305 91.9391 101.52V95.3986C91.9391 95.2131 91.8678 95.0275 91.7251 94.8991L88.1576 91.3316C87.8722 91.0462 87.4298 91.0462 87.1444 91.3316L83.5769 94.8991C83.4485 95.0275 83.3771 95.1988 83.3771 95.3986ZM93.8656 84.6105L90.2981 88.178C90.0127 88.4634 90.0127 88.9057 90.2981 89.1911L93.8656 92.7586C93.994 92.8871 94.1795 92.9727 94.365 92.9727H100.501C101.286 92.9727 101.928 92.3305 101.928 91.5457V85.8377C101.928 85.0529 101.286 84.4107 100.501 84.4107H94.3793C94.1795 84.3964 94.0083 84.4678 93.8656 84.6105Z" fill="#333333"/>
<path fill-rule="evenodd" clip-rule="evenodd" d="M121.931 7.54784C96.3585 -1.14492 81.59 -1.30166 54.4047 7.54784V54.4043H8.15422C-1.39607 79.8322 -1.56575 94.7541 8.15422 121.93H54.4047V168.18C81.0075 178.166 95.7839 177.917 121.931 168.18V121.93H168.181C177.584 96.4504 177.962 81.7993 168.181 54.4043H121.931V7.54784Z" fill="url(#paint1_radial_522_8979)" fill-opacity="0.47"/>
<circle cx="88.1679" cy="88.1679" r="87.1486" stroke="#333333" stroke-width="2.03856"/>
<defs>
<filter id="filter0_d_522_8979" x="307.823" y="8.1541" width="38.7328" height="29.5592" filterUnits="userSpaceOnUse" color-interpolation-filters="sRGB">
<feFlood flood-opacity="0" result="BackgroundImageFix"/>
<feColorMatrix in="SourceAlpha" type="matrix" values="0 0 0 0 0 0 0 0 0 0 0 0 0 0 0 0 0 0 127 0" result="hardAlpha"/>
<feOffset/>
<feGaussianBlur stdDeviation="5.09641"/>
<feComposite in2="hardAlpha" operator="out"/>
<feColorMatrix type="matrix" values="0 0 0 0 0.207465 0 0 0 0 0.207532 0 0 0 0 0.208333 0 0 0 1 0"/>
<feBlend mode="normal" in2="BackgroundImageFix" result="effect1_dropShadow_522_8979"/>
<feBlend mode="normal" in="SourceGraphic" in2="effect1_dropShadow_522_8979" result="shape"/>
</filter>
<filter id="filter1_d_522_8979" x="333.751" y="28.5393" width="22.9162" height="24.6516" filterUnits="userSpaceOnUse" color-interpolation-filters="sRGB">
<feFlood flood-opacity="0" result="BackgroundImageFix"/>
<feColorMatrix in="SourceAlpha" type="matrix" values="0 0 0 0 0 0 0 0 0 0 0 0 0 0 0 0 0 0 127 0" result="hardAlpha"/>
<feOffset dy="1.01928"/>
<feGaussianBlur stdDeviation="1.52892"/>
<feColorMatrix type="matrix" values="0 0 0 0 0 0 0 0 0 0 0 0 0 0 0 0 0 0 0.4 0"/>
<feBlend mode="normal" in2="BackgroundImageFix" result="effect1_dropShadow_522_8979"/>
<feBlend mode="normal" in="SourceGraphic" in2="effect1_dropShadow_522_8979" result="shape"/>
</filter>
<radialGradient id="paint0_radial_522_8979" cx="0" cy="0" r="1" gradientUnits="userSpaceOnUse" gradientTransform="translate(327.683 88.2729) rotate(90) scale(87.3036 87.2241)">
<stop stop-color="#333333"/>
<stop offset="1" stop-color="#333333" stop-opacity="0"/>
</radialGradient>
<radialGradient id="paint1_radial_522_8979" cx="0" cy="0" r="1" gradientUnits="userSpaceOnUse" gradientTransform="translate(88.1518 88.2729) rotate(90) scale(87.3036 87.2241)">
<stop stop-color="#333333"/>
<stop offset="1" stop-color="#333333" stop-opacity="0"/>
</radialGradient>
</defs>
</svg>
